<svg width="185" height="27" viewBox="0 0 185 27" fill="none" xmlns="http://www.w3.org/2000/svg">
    <path d="M58.244 10.074H55.832L55.094 15.528H58.1L57.884 16.932H53.672C54.608 17.724 56.006 18.396 57.866 18.948L56.822 20.532C56.138 20.28 55.562 20.034 55.094 19.794C54.626 19.554 54.23 19.326 53.906 19.11L53.78 20.37H50.288L50.072 21.936H56.39L56.174 23.376H41.72L41.936 21.936H48.074L48.29 20.37H44.996L45.122 19.218C44.51 19.53 43.862 19.812 43.178 20.064C42.494 20.316 41.858 20.508 41.27 20.64L41.72 18.75C42.236 18.642 42.776 18.486 43.34 18.282C43.916 18.066 44.414 17.838 44.834 17.598C45.254 17.358 45.596 17.136 45.86 16.932H41.846L42.062 15.528H44.906L45.662 10.074H43.214L43.412 8.67H45.86L46.076 7.176H48.056L47.858 8.67H54.032L54.23 7.176H56.21L56.012 8.67H58.442L58.244 10.074ZM53.708 10.956L53.834 10.074H47.66L47.534 10.956H53.708ZM53.402 13.206L53.528 12.288H47.354L47.228 13.206H53.402ZM46.922 15.528H53.078L53.222 14.538H47.048L46.922 15.528ZM53.708 18.966C52.856 18.378 52.106 17.7 51.458 16.932H48.236C48.092 17.112 47.876 17.334 47.588 17.598C47.3 17.862 46.946 18.132 46.526 18.408C46.106 18.672 45.794 18.858 45.59 18.966H48.488L48.686 17.544H50.666L50.468 18.966H53.708ZM73.058 21.864L73.76 15.978H75.56L74.732 23.376H65.948L66.974 15.978H68.756L68 21.864H69.584L70.466 14.826H67.352L68.198 8.436H69.962L69.404 13.314H70.646L71.42 7.176H73.292L72.554 13.314H73.814L74.462 8.436H76.262L75.524 14.826H72.374L71.528 21.864H73.058ZM64.94 13.098C65.288 13.098 65.546 13.134 65.714 13.206C65.882 13.278 65.99 13.41 66.038 13.602C66.086 13.782 66.086 14.094 66.038 14.538L65.21 21.99H60.08L60.818 16.662C60.374 17.058 59.954 17.394 59.558 17.67L60.008 14.97C60.416 14.646 60.806 14.208 61.178 13.656C61.562 13.104 61.91 12.456 62.222 11.712C62.546 10.956 62.792 10.17 62.96 9.354H61.25L61.466 7.824H67.298L67.082 9.354H64.868C64.76 9.918 64.586 10.53 64.346 11.19C64.118 11.838 63.842 12.474 63.518 13.098H64.94ZM64.31 14.826C64.322 14.73 64.31 14.664 64.274 14.628C64.25 14.592 64.196 14.574 64.112 14.574H62.816L62.078 20.46H63.626L64.31 14.826ZM83.822 17.76C81.47 17.976 79.352 18.156 77.468 18.3C77.924 17.844 78.482 17.244 79.142 16.5C79.814 15.744 80.57 14.844 81.41 13.8H78.08C79.76 11.256 81.044 9.048 81.932 7.176H84.11C83.63 8.064 83.114 8.97 82.562 9.894C82.01 10.806 81.482 11.628 80.978 12.36H82.526C83.006 11.724 83.372 11.226 83.624 10.866H85.856C84.044 13.206 82.454 15.096 81.086 16.536C82.322 16.416 83.312 16.314 84.056 16.23L83.822 17.76ZM92.75 7.788C93.17 7.788 93.44 7.866 93.56 8.022C93.692 8.178 93.728 8.472 93.668 8.904L91.814 21.828H93.254L93.038 23.376H82.382L82.58 21.828H84.29L86.36 7.788H92.75ZM91.598 9.336H88.016L87.566 12.36H91.292L91.706 9.498C91.718 9.39 91.682 9.336 91.598 9.336ZM90.608 16.986L91.076 13.872H87.35L86.9 16.986H90.608ZM86.198 21.828H89.906L90.392 18.498H86.684L86.198 21.828ZM83.678 19.02L83.408 20.712C81.104 21.48 78.986 22.134 77.054 22.674L77.324 20.91C79.04 20.454 81.158 19.824 83.678 19.02ZM101.624 7.176C101.456 7.884 101.21 8.592 100.886 9.3C100.574 10.008 100.232 10.656 99.86 11.244L98.186 23.376H96.224L97.592 13.998C97.052 14.502 96.476 14.952 95.864 15.348L96.296 12.702C97.112 11.898 97.784 11.058 98.312 10.182C98.852 9.294 99.29 8.292 99.626 7.176H101.624ZM111.956 16.176L111.704 17.85H107.042L106.286 23.376H104.252L105.026 17.85H99.716L99.986 16.176H105.26L105.818 12.09H103.406C102.542 13.374 101.414 14.424 100.022 15.24L100.436 12.63C101.12 12.078 101.654 11.466 102.038 10.794C102.434 10.11 102.77 9.24 103.046 8.184H105.116C104.9 8.988 104.63 9.744 104.306 10.452H106.052L106.502 7.176H108.5L108.05 10.452H111.902L111.65 12.09H107.834L107.276 16.176H111.956ZM118.904 11.496H116.6L115.16 7.464H117.194C117.59 8.496 118.16 9.84 118.904 11.496ZM129.848 8.022L129.596 9.624H120.812L121.046 8.022H129.848ZM119.714 12H130.172L129.92 13.638H124.916C124.46 14.49 124.016 15.27 123.584 15.978C123.152 16.686 122.792 17.256 122.504 17.688C122.228 18.108 122.036 18.396 121.928 18.552H126.518C126.182 17.292 125.936 16.29 125.78 15.546H127.688C127.868 16.302 128.09 17.124 128.354 18.012C128.63 18.9 128.894 19.68 129.146 20.352H127.004L126.608 18.948L126.158 20.136H118.778C120.578 17.496 121.868 15.33 122.648 13.638H119.462L119.714 12ZM117.086 20.046C117.782 20.514 118.562 20.862 119.426 21.09C120.302 21.33 121.202 21.48 122.126 21.54C123.05 21.6 123.938 21.63 124.79 21.63H129.416L128.786 23.376H124.232C123.128 23.376 122.078 23.316 121.082 23.196C120.086 23.088 119.18 22.89 118.364 22.602C117.548 22.314 116.816 21.954 116.168 21.522C115.748 22.17 115.322 22.788 114.89 23.376H112.55C113.282 22.464 113.948 21.54 114.548 20.604C115.16 19.656 115.634 18.786 115.97 17.994L116.348 14.934C116.36 14.838 116.348 14.766 116.312 14.718C116.276 14.67 116.21 14.646 116.114 14.646H114.044L114.296 13.134H117.536C117.884 13.134 118.124 13.2 118.256 13.332C118.388 13.464 118.436 13.704 118.4 14.052L117.896 18.534C117.848 18.618 117.758 18.792 117.626 19.056C117.494 19.32 117.314 19.65 117.086 20.046ZM148.262 11.604H145.454L145.166 13.854H147.524L147.308 15.348H144.968L144.644 17.742H146.984L146.768 19.236H144.464L144.122 21.846H147.218L147.02 23.376H137.804L139.28 12.738C138.872 13.086 138.464 13.398 138.056 13.674L138.164 12.324C137.084 13.956 135.992 15.438 134.888 16.77C134.924 16.77 134.99 16.764 135.086 16.752C135.182 16.74 135.296 16.728 135.428 16.716C135.572 16.704 135.92 16.668 136.472 16.608C137.036 16.548 137.486 16.5 137.822 16.464L137.588 17.94C137.156 17.976 136.19 18.066 134.69 18.21C133.202 18.342 132.116 18.432 131.432 18.48C132.308 17.472 133.064 16.542 133.7 15.69C134.348 14.838 134.774 14.268 134.978 13.98H132.026C132.674 12.948 133.328 11.826 133.988 10.614C134.648 9.39 135.224 8.244 135.716 7.176H137.804C136.808 9.18 135.812 10.968 134.816 12.54H135.968C136.268 12.072 136.532 11.634 136.76 11.226H138.326C138.974 10.674 139.532 10.038 140 9.318C140.468 8.598 140.81 7.884 141.026 7.176H143.024C142.928 7.524 142.766 7.944 142.538 8.436C142.322 8.928 142.01 9.486 141.602 10.11H143.924C143.78 8.898 143.678 7.92 143.618 7.176H145.472C145.544 8.148 145.664 9.126 145.832 10.11H148.496L148.262 11.604ZM143.276 13.854L143.564 11.604H141.35L141.044 13.854H143.276ZM142.754 17.742L143.078 15.348H140.846L140.522 17.742H142.754ZM130.91 22.872L131.18 21.09C132.86 20.61 134.978 19.908 137.534 18.984L137.246 20.766C134.966 21.654 132.854 22.356 130.91 22.872ZM142.232 21.846L142.574 19.236H140.324L139.982 21.846H142.232ZM166.082 7.716L165.866 9.228H159.782L158.882 15.654H165.83L165.596 17.166H158.666L157.802 23.376H155.732L156.614 17.166H150.062L150.296 15.654H156.83L157.748 9.228H151.988L152.204 7.716H166.082ZM154.382 10.182C154.706 11.406 155.186 12.918 155.822 14.718H153.734C153.542 14.106 153.332 13.398 153.104 12.594C152.876 11.79 152.66 10.986 152.456 10.182H154.382ZM162.41 14.736H160.268C160.712 14.052 161.132 13.314 161.528 12.522C161.936 11.718 162.278 10.944 162.554 10.2H164.48C163.808 11.928 163.118 13.44 162.41 14.736ZM181.094 13.062L180.662 14.016H168.188C169.256 12.972 170.354 11.826 171.482 10.578C172.61 9.318 173.57 8.184 174.362 7.176H176.972C176.372 7.932 175.652 8.796 174.812 9.768C173.972 10.728 173.15 11.604 172.346 12.396H180.698C179.738 10.812 179.066 9.66 178.682 8.94H180.806C181.19 9.588 181.844 10.632 182.768 12.072C183.704 13.5 184.256 14.346 184.424 14.61H181.976C181.796 14.274 181.502 13.758 181.094 13.062ZM180.986 15.906C181.394 15.906 181.688 15.966 181.868 16.086C182.048 16.206 182.144 16.386 182.156 16.626C182.18 16.854 182.174 17.106 182.138 17.382L181.346 23.376H168.476L169.574 15.906H180.986ZM179.996 17.814C180.032 17.622 179.96 17.526 179.78 17.526H171.374L170.834 21.756H179.474L179.996 17.814Z"
          fill="var(--td-text-color-primary)"/>
    <g filter="url(#filter0_i_21_18)">
        <path d="M1 11.75L4.52381 8H13.3333V11.75H4.52381V15.5H13.3333V19.25H4.52381V23H1V15.5V11.75Z" fill="#28A2EA"/>
        <path d="M16.8571 11.75V8H20.381V11.75H16.8571Z" fill="#28A2EA"/>
        <path d="M16.8571 23V13.625H20.381V23H16.8571Z" fill="#28A2EA"/>
        <path d="M23.9048 11.75V8H38V11.75H32.7143V23H29.1905V11.75H23.9048Z" fill="#28A2EA"/>
    </g>
    <path d="M1 11.75L4.52381 8M1 11.75V15.5M1 11.75H4.52381M4.52381 8H13.3333V11.75H4.52381M4.52381 8V11.75M1 15.5V23H4.52381V19.25M1 15.5L4.52381 19.25M1 15.5H4.52381M13.3333 15.5V19.25H4.52381M13.3333 15.5C9.893 15.5 7.96414 15.5 4.52381 15.5M13.3333 15.5H4.52381M4.52381 19.25V15.5M23.9048 8V11.75H29.1905M23.9048 8C29.4093 8 32.4955 8 38 8M23.9048 8H38M38 11.75C38 10.2855 38 9.46447 38 8M38 11.75H32.7143M38 11.75V8M29.1905 11.75V23H32.7143V11.75M29.1905 11.75H32.7143M4.52381 11.75V15.5M16.8571 8V11.75H20.381V8H16.8571ZM16.8571 13.625V23H20.381V13.625H16.8571Z"
          stroke="black" stroke-opacity="0.17" stroke-width="0.1"/>
    <defs>
        <filter id="filter0_i_21_18" x="0.949951" y="7.9502" width="37.1001" height="19.0996"
                filterUnits="userSpaceOnUse" color-interpolation-filters="sRGB">
            <feFlood flood-opacity="0" result="BackgroundImageFix"/>
            <feBlend mode="normal" in="SourceGraphic" in2="BackgroundImageFix" result="shape"/>
            <feColorMatrix in="SourceAlpha" type="matrix" values="0 0 0 0 0 0 0 0 0 0 0 0 0 0 0 0 0 0 127 0"
                           result="hardAlpha"/>
            <feOffset dy="4"/>
            <feGaussianBlur stdDeviation="2"/>
            <feComposite in2="hardAlpha" operator="arithmetic" k2="-1" k3="1"/>
            <feColorMatrix type="matrix" values="0 0 0 0 0 0 0 0 0 0 0 0 0 0 0 0 0 0 0.25 0"/>
            <feBlend mode="normal" in2="shape" result="effect1_innerShadow_21_18"/>
        </filter>
    </defs>
</svg>
