<svg xmlns="http://www.w3.org/2000/svg" xmlns:xlink="http://www.w3.org/1999/xlink" width="124" height="89" viewBox="0 0 124 89" version="1.1">
  <title>编组</title>
  <g id="自动化交付" stroke="none" stroke-width="1" fill="none" fill-rule="evenodd">
    <g id="节点交付-执行状态暂无数据" transform="translate(-1038.000000, -422.000000)">
      <g id="编组" transform="translate(1038.000000, 422.000000)">
        <rect id="矩形" opacity="0" x="0" y="0" width="124" height="89"/>
        <path d="M100.266667,72 L24.6666667,72 C21.5738721,72 19.0666667,69.4927946 19.0666667,66.4 L19.0666667,32.6248998 L19.0666667,32.6248998 L39.4449263,8.26882968 C39.7995937,7.84493164 40.3238784,7.6 40.8765795,7.6 L84.0188009,7.6 C84.5709041,7.6 85.0946851,7.84440419 85.4493565,8.26751898 L105.866667,32.6248998 L105.866667,32.6248998 L105.866667,66.4 C105.866667,69.4927946 103.359461,72 100.266667,72 Z" id="路径-8" stroke="#E7E7E7" stroke-width="0.933333333" stroke-linecap="round" stroke-linejoin="round"/>
        <path d="M62,81.3333333 C94.4743433,81.3333333 120.8,76.5278563 120.8,70.6 C120.8,67.8548434 115.154296,65.3503881 105.866733,63.4524156 C106.026531,64.8938514 105.682495,68.2339107 104.682143,69.9037595 C102.354148,73.7897932 83.3712196,72 62,72 C39.921564,72 25.1998961,73.4389896 21.1578732,70.8536487 C17.762273,68.6817698 19.5643438,65.9309405 19.1073554,63.2581749 C9.2419384,65.177884 3.2,67.7601447 3.2,70.6 C3.2,76.5278563 29.5256567,81.3333333 62,81.3333333 Z" id="椭圆形" fill="#F5F5F5"/>
        <path d="M19.0666667,32.8 L19.0666667,66.4 C19.0666667,69.4927946 21.5738721,72 24.6666667,72 L100.266667,72 C103.359461,72 105.866667,69.4927946 105.866667,66.4 L105.866667,32.8 L105.866667,32.8 C95.2652835,32.8 87.3977748,32.8 82.2641406,32.8 C80.1470979,32.8 78.8369297,34.6696379 78.333636,38.4089136 C78.0219348,40.7247768 76.0454204,42.4530823 73.7086748,42.4530823 L49.6582166,42.4530823 C47.3388446,42.4530814 45.371466,40.7496951 45.0395756,38.4541919 C44.4945762,34.6847306 43.0608418,32.8 40.7383724,32.8 C37.7037984,32.8 30.4798965,32.8 19.0666667,32.8 Z" id="路径-5" stroke="#E7E7E7" stroke-width="0.933333333" stroke-linejoin="round"/>
      </g>
    </g>
  </g>
<div xmlns="" id="divScriptsUsed" style="display: none"/><script xmlns="" id="globalVarsDetection" src="chrome-extension://cmkdbmfndkfgebldhnkbfhlneefdaaip/js/wrs_env.js"/></svg>